/home/minht/3dpredictsim_tutorial/predsim_tutorial/Results/Case_11/GRF.mot
version=1
nRows=27
nColumns=19
inDegrees=yes
endheader 
time	r_ground_force_vx	r_ground_force_vy	r_ground_force_vz	r_ground_force_px	r_ground_force_py	r_ground_force_pz	l_ground_force_vx	l_ground_force_vy	l_ground_force_vz	l_ground_force_px	l_ground_force_py	l_ground_force_pz	r_ground_torque_x	r_ground_torque_y	r_ground_torque_z	l_ground_torque_x	l_ground_torque_y	l_ground_torque_z	
          0.53329705	         37.82802229	        847.34135994	        -29.20439353	          0.21268679	          0.00000000	          0.08939207	          0.00000000	          0.00000000	          0.00000000	          0.00000000	          0.00000000	          0.00000000	          0.00000000	          6.36595557	          0.00000000	          0.00000000	          0.00000000	          0.00000000	
          0.54945756	         39.38928205	        842.14707949	        -28.20384019	          0.21553268	          0.00000000	          0.08951881	          0.00000000	          0.00000000	          0.00000000	          0.00000000	          0.00000000	          0.00000000	          0.00000000	          6.47196776	          0.00000000	          0.00000000	          0.00000000	          0.00000000	
          0.56561808	         40.70093023	        838.92468152	        -27.28689869	          0.21839271	          0.00000000	          0.08978913	          0.00000000	          0.00000000	          0.00000000	          0.00000000	          0.00000000	          0.00000000	          0.00000000	          6.51230039	          0.00000000	          0.00000000	          0.00000000	          0.00000000	
          0.58177860	         42.82036993	        838.13550355	        -26.54266637	          0.22136648	          0.00000000	          0.09021445	          0.00000000	          0.00000000	          0.00000000	          0.00000000	          0.00000000	          0.00000000	          0.00000000	          6.46633330	          0.00000000	          0.00000000	          0.00000000	          0.00000000	
          0.59793911	         46.34164622	        840.79106340	        -26.40830048	          0.22457002	          0.00000000	          0.09078476	          0.00000000	          0.00000000	          0.00000000	          0.00000000	          0.00000000	          0.00000000	          0.00000000	          6.34278058	          0.00000000	          0.00000000	          0.00000000	          0.00000000	
          0.61409963	         51.37684603	        845.77708060	        -27.03207102	          0.22805138	          0.00000000	          0.09146420	          0.00000000	          0.00000000	          0.00000000	          0.00000000	          0.00000000	          0.00000000	          0.00000000	          6.19188695	          0.00000000	          0.00000000	          0.00000000	          0.00000000	
          0.63026014	         56.47545995	        848.14596993	        -28.11400492	          0.23179392	          0.00000000	          0.09218511	          0.00000000	          0.00000000	          0.00000000	          0.00000000	          0.00000000	          0.00000000	          0.00000000	          6.10871168	          0.00000000	          0.00000000	          0.00000000	          0.00000000	
          0.64642066	         62.36270791	        843.97263825	        -30.12885221	          0.23587026	          0.00000000	          0.09283866	        -66.11409158	         49.53616954	        -16.58856233	          0.62618793	          0.00000000	         -0.09077260	          0.00000000	          6.06495308	          0.00000000	          0.00000000	          0.00000030	          0.00000000	
          0.66258118	         67.35645997	        829.69965208	        -27.70191835	          0.24033402	          0.00000000	          0.09339533	        -95.58780312	         96.44127288	        -39.07852119	          0.63938207	          0.00000000	         -0.08736948	          0.00000000	          5.99630008	          0.00000000	          0.00000000	          0.00000235	          0.00000000	
          0.67874169	         72.69623497	        804.58067575	        -23.20572536	          0.24514480	          0.00000000	          0.09377668	        -43.21004213	        178.55541259	        -34.09240259	          0.64626745	          0.00000000	         -0.08482002	          0.00000000	          5.75360105	          0.00000000	          0.00000000	          0.00028524	          0.00000000	
          0.69490221	         76.19307445	        772.24096823	        -19.33861491	          0.24986059	          0.00000000	          0.09389447	        -37.52011973	        271.71523158	        -20.59273934	          0.64829857	          0.00000000	         -0.08368934	          0.00000000	          5.05282675	          0.00000000	          0.00000000	          0.00293592	          0.00000000	
          0.71106273	         75.29555412	        733.23285610	        -16.19037060	          0.25450356	          0.00000000	          0.09381293	        -47.22931195	        348.77104426	        -15.23494751	          0.65006211	          0.00000000	         -0.08334960	          0.00000000	          4.23594681	          0.00000000	          0.00000000	          0.01398673	          0.00000000	
          0.72722324	         75.02318860	        681.79360039	        -11.82490059	          0.25948715	          0.00000000	          0.09363311	        -57.05439612	        410.68564738	        -13.17948375	          0.65261647	          0.00000000	         -0.08355383	          0.00000000	          3.57510016	          0.00000000	          0.00000000	         -0.00487837	          0.00000000	
          0.74338376	         72.50335855	        623.86636678	         -5.97020209	          0.26444745	          0.00000000	          0.09346160	        -68.30778915	        479.79485611	         -9.81928296	          0.65850694	          0.00000000	         -0.08502572	          0.00000000	          3.04755293	          0.00000000	          0.00000000	         -0.25532831	          0.00000000	
          0.75954428	         66.36699256	        562.50172905	          0.51217802	          0.26944039	          0.00000000	          0.09342091	        -80.42600704	        547.71317198	         -6.51549697	          0.66620282	          0.00000000	         -0.08616390	          0.00000000	          2.61359370	          0.00000000	          0.00000000	         -1.18739718	          0.00000000	
          0.77570479	         55.90230578	        497.78946279	          7.23887499	          0.27530093	          0.00000000	          0.09348658	       -100.96699249	        625.62996572	         -4.71744058	          0.67767208	          0.00000000	         -0.08533363	          0.00000000	          2.21626778	          0.00000000	          0.00000000	         -3.14213679	          0.00000000	
          0.79186531	         43.22042992	        431.06633659	         13.98597366	          0.28237555	          0.00000000	          0.09371687	       -118.30883882	        706.93750534	         -8.34765977	          0.68922320	          0.00000000	         -0.08360991	          0.00000000	          1.87519585	          0.00000000	          0.00000000	         -4.86022973	          0.00000000	
          0.80802583	         30.12867645	        367.61978871	         19.47473278	          0.29055796	          0.00000000	          0.09419430	       -122.66613381	        749.31766264	         -9.60829488	          0.69636802	          0.00000000	         -0.08247328	          0.00000000	          1.56817238	          0.00000000	          0.00000000	         -5.49921814	          0.00000000	
          0.82418634	         18.98097324	        314.06842738	         23.02687017	          0.29889680	          0.00000000	          0.09501645	       -117.76847246	        764.16952970	         -9.35390506	          0.70022715	          0.00000000	         -0.08180697	          0.00000000	          1.28733618	          0.00000000	          0.00000000	         -5.31365206	          0.00000000	
          0.84034686	         11.24538941	        274.12936245	         24.87673396	          0.30579939	          0.00000000	          0.09610353	       -108.95828217	        767.22689921	         -8.39481507	          0.70268783	          0.00000000	         -0.08138617	          0.00000000	          1.04793999	          0.00000000	          0.00000000	         -4.75388588	          0.00000000	
          0.85650738	          6.55088246	        245.01190512	         26.44467410	          0.31125621	          0.00000000	          0.09664883	        -98.65960892	        764.08002803	         -7.25177602	          0.70441009	          0.00000000	         -0.08109745	          0.00000000	          0.81262385	          0.00000000	          0.00000000	         -4.11183582	          0.00000000	
          0.87266789	          3.56215934	        224.94635781	         28.11430848	          0.31510545	          0.00000000	          0.09622806	        -88.34387270	        757.91134929	         -6.07530806	          0.70572436	          0.00000000	         -0.08088468	          0.00000000	          0.62656121	          0.00000000	          0.00000000	         -3.46836998	          0.00000000	
          0.88882841	          2.03307446	        211.53413645	         30.03261895	          0.31728819	          0.00000000	          0.09482074	        -78.95549203	        750.99471411	         -5.03915378	          0.70681581	          0.00000000	         -0.08073031	          0.00000000	          0.52350186	          0.00000000	          0.00000000	         -2.90412669	          0.00000000	
          0.90498893	          1.50268626	        200.56072693	         31.41164707	          0.31913513	          0.00000000	          0.09331371	        -71.40972302	        745.26041768	         -4.09027774	          0.70777242	          0.00000000	         -0.08062764	          0.00000000	          0.43375906	          0.00000000	          0.00000000	         -2.45980453	          0.00000000	
          0.92114944	          1.54101680	        190.79473532	         32.22391925	          0.32085472	          0.00000000	          0.09194280	        -64.77362098	        741.63746806	         -3.15501646	          0.70860644	          0.00000000	         -0.08057822	          0.00000000	          0.35318877	          0.00000000	          0.00000000	         -2.13181788	          0.00000000	
          0.93730996	          1.83178499	        181.67832141	         32.56215970	          0.32251585	          0.00000000	          0.09085215	        -58.79700404	        739.97880269	         -2.10738815	          0.70934695	          0.00000000	         -0.08057864	          0.00000000	          0.27968230	          0.00000000	          0.00000000	         -1.89294522	          0.00000000	
          0.95347048	          2.17800110	        172.78824322	         32.66754920	          0.32411711	          0.00000000	          0.09014253	        -53.40799694	        740.35507886	         -0.91408842	          0.71002172	          0.00000000	         -0.08062678	          0.00000000	          0.21441058	          0.00000000	          0.00000000	         -1.72377178	          0.00000000	
